<?xml version="1.0" encoding="UTF-8"?>
<svg width="28px" height="29px" viewBox="0 0 28 29" version="1.1" xmlns="http://www.w3.org/2000/svg" xmlns:xlink="http://www.w3.org/1999/xlink">
    <!-- Generator: Sketch 40.3 (33839) - http://www.bohemiancoding.com/sketch -->
    <title>Untitled</title>
    <desc>Created with Sketch.</desc>
    <defs></defs>
    <g id="Page-1" stroke="none" stroke-width="1" fill="none" fill-rule="evenodd">
        <g id="icon-troubleshoot" fill="#0093C9">
            <g id="Updated-HOME">
                <g id="home-updated">
                    <g id="Troubleshoot">
                        <path d="M3.80905924,26.3150905 C3.36802222,26.7442646 2.65157778,26.7442646 2.20957778,26.3150905 C1.76854076,25.8868514 1.76854076,25.1902617 2.20957778,24.7629576 C2.65157778,24.3337835 3.36802222,24.3337835 3.80905924,24.7629576 C4.25009631,25.1902617 4.25009631,25.8868514 3.80905924,26.3150905 M27.1310592,24.2374764 L17.594837,14.97891 C17.5052815,14.8910181 17.4109111,14.8134115 17.3117259,14.7414149 L19.0017259,13.0153683 C19.0874296,12.9312165 19.1683185,12.8414546 19.2443926,12.7516927 C21.4861704,13.5726401 24.1160222,13.1116754 25.9186889,11.3613182 C27.2331333,10.0850161 27.8975778,8.31969865 27.7358,6.51511036 C27.7194296,6.31314607 27.578837,6.13736234 27.3814296,6.06630083 C27.1830592,5.99617437 26.9606148,6.0447954 26.8113556,6.18972345 L23.756837,9.15654143 L20.6618741,8.39824032 L19.7855778,5.29958456 L22.8400963,2.33370163 C22.9893556,2.18783853 23.0384667,1.97184897 22.9672074,1.78016988 C22.8949852,1.5866208 22.7129852,1.45291293 22.5030592,1.43514758 C20.6474296,1.27993429 18.8293556,1.92322794 17.5149111,3.198595 C15.7141704,4.9470821 15.2365408,7.50155631 16.0810592,9.67734746 C15.9905408,9.75308409 15.8971333,9.83256075 15.8085408,9.91858258 L13.3240963,12.2364968 L8.75868889,7.80450274 C8.69994813,7.75027159 8.64024444,7.70071551 8.57668889,7.65396452 C8.63254076,7.56326762 8.68454076,7.46976564 8.73076298,7.37252357 C9.6966148,7.55204738 11.4578741,5.72969369 12.9552815,4.2776079 L8.5949852,0.0429030143 C6.64594813,1.93538317 5.22076298,3.20701016 5.40565187,4.14390004 C4.9598,4.35521452 4.56209631,4.612345 4.27994813,4.88724083 L3.66557778,5.48284845 C3.26787409,5.87088171 3.02617036,6.35335195 2.94142964,6.85639262 C2.88172591,6.92184401 2.82105924,6.99197047 2.76135556,7.06583707 L2.53120742,7.34634302 C2.52542964,7.35382318 2.50520742,7.38000373 2.50039258,7.38654885 L2.29335556,7.66798984 C2.16335556,7.83816345 2.05068889,8.01862226 1.9389852,8.19534103 C1.89950369,8.26079242 1.85713333,8.32717881 1.81572591,8.39356524 C1.8089852,8.40385043 1.80320742,8.41320063 1.79742964,8.42629091 L1.7049852,8.59459448 C1.59231853,8.79655877 1.47772591,9.00787325 1.37854076,9.23975817 L1.36217036,9.27622397 C1.2466148,9.54363964 1.12431853,9.82321055 1.04150369,10.1186768 L0.999133333,10.2458395 C0.966392578,10.3505617 0.931725911,10.457154 0.900911111,10.5824467 L0.815207422,10.9891803 C0.754540756,11.2444407 0.732392578,11.495026 0.714096311,11.7166258 L0.701577778,11.8634238 C0.670762978,12.0943738 0.679429644,12.3122334 0.687133333,12.5048475 C0.6909852,12.5684288 0.692911111,12.6310752 0.6958,12.718032 C0.697725911,12.7535627 0.697725911,12.7872235 0.699651867,12.8218192 C0.701577778,12.906906 0.703503689,13.0050831 0.719874089,13.1079353 L0.7738,13.4370623 C0.785355556,13.5025137 0.794022222,13.564225 0.802688889,13.6240662 C0.824837022,13.757774 0.845059244,13.897092 0.887429644,14.0279948 L1.10987409,14.7797508 C1.17920742,15.0078956 1.40165187,15.1593688 1.64528147,15.1434735 C1.77624444,15.1341233 1.89276298,15.0798921 1.97750369,14.9948053 C2.05550369,14.9209387 2.10942964,14.8227617 2.12676298,14.7096242 L2.24135556,13.9466481 C2.24905924,13.8849367 2.2769852,13.7970449 2.30394813,13.7026079 C2.32417036,13.6380915 2.34439258,13.5707701 2.35883702,13.5146689 L2.43972591,13.2285528 C2.45128147,13.190217 2.46957778,13.1528162 2.48787409,13.1144804 C2.50328147,13.0789496 2.51965187,13.0424839 2.53505924,13.0050831 C2.56202222,12.9452418 2.58802222,12.8835305 2.61305924,12.8218192 C2.66409631,12.7002666 2.71224444,12.5861942 2.78542964,12.4730568 C2.81624444,12.4197607 2.84705924,12.3692696 2.87594813,12.3159735 C2.95202222,12.1841357 3.02424444,12.058843 3.11091111,11.9550558 C3.11668889,11.9494457 3.12054076,11.9429006 3.12631853,11.9354204 L3.32083702,11.6745498 C3.36031853,11.6268639 3.40654076,11.5791778 3.44891111,11.5342969 C3.48068889,11.5006361 3.51150369,11.4679105 3.54905924,11.4248996 C3.66365187,11.2902567 3.79750369,11.1743142 3.92942964,11.0593068 L3.9978,10.9975955 C4.09409631,10.9115736 4.20387409,10.8302269 4.32231853,10.7442051 C4.36950369,10.7086744 4.41668889,10.6750137 4.46483702,10.6422879 C4.52165187,10.6030171 4.58039258,10.5665514 4.63624444,10.5291506 C4.74217036,10.4599591 4.83268889,10.4001178 4.93765187,10.3477567 L5.16876298,10.220594 L5.40083702,10.1093266 C5.48172591,10.0691208 5.5626148,10.0373301 5.63676298,10.0092795 C5.68009631,9.98964409 5.72342964,9.97374877 5.76387409,9.95598337 C5.80431853,9.9419581 5.8438,9.92793278 5.88039258,9.9139075 C5.93046667,9.89707714 5.97476298,9.88024679 6.03254076,9.86435143 L6.09417036,9.85219619 C6.16350369,9.95972345 6.24342964,10.0616406 6.33876298,10.1560776 L10.8550592,14.5394506 L1.21772591,23.5287314 C1.21291111,23.5315365 1.21002222,23.5362115 1.20617036,23.5390166 C0.00631853333,24.7040514 -0.190125911,26.4085925 1.00972591,27.5736272 C2.20957778,28.7386621 3.85431853,28.4403906 5.05417036,27.2753559 C5.0589852,27.2697458 5.06283702,27.2669407 5.0686148,27.2613306 L13.5715778,18.5675161 C13.6216519,18.6236173 13.670763,18.6815885 13.7256519,18.7348847 L23.2609111,27.9953212 C24.328837,29.0313232 26.0612074,29.0313232 27.1310592,27.9953212 C28.1980222,26.9565141 28.1980222,25.2744135 27.1310592,24.2374764" id="icon-troubleshoot"></path>
                    </g>
                </g>
            </g>
        </g>
    </g>
</svg>